<svg width="70" height="55" viewBox="0 0 70 55" fill="none" xmlns="http://www.w3.org/2000/svg">
<path d="M67.3077 5.5V1.375C67.3077 0.615083 66.7046 0 65.9615 0H40.3846C38.1877 0 36.2322 1.08167 35.0036 2.75C35.0018 2.75 35.0009 2.75 35 2.75C34.9991 2.75 34.9982 2.75 34.9964 2.75C33.7678 1.08167 31.8123 0 29.6154 0H4.03846C3.29538 0 2.69231 0.615083 2.69231 1.375V5.5H0V52.25H28.9863C30.459 53.9367 32.6128 55 35 55C37.3872 55 39.5401 53.9367 41.0119 52.25H70V5.5H67.3077ZM5.38462 2.75H29.6154C31.8419 2.75 33.6538 4.60075 33.6538 6.875V33.1522C33.6538 33.9121 34.2569 34.5272 35 34.5272C35.7431 34.5272 36.3462 33.9121 36.3462 33.1522V6.875C36.3462 4.60075 38.1581 2.75 40.3846 2.75H64.6154V46.75H40.3846C38.1886 46.75 36.2322 47.8317 35.0036 49.5C35.0027 49.5 35.0009 49.5 35 49.5C34.9991 49.5 34.9973 49.5 34.9964 49.5C33.7678 47.8317 31.8114 46.75 29.6154 46.75H5.38462V2.75Z" fill="#495ECA"/>
</svg>
