<svg width="69" height="69" viewBox="0 0 69 69" fill="none" xmlns="http://www.w3.org/2000/svg">
<path d="M34.4997 0C15.4459 0 0 15.4471 0 34.5C0 53.5526 15.4459 69 34.4997 69C53.5544 69 69 53.5526 69 34.5C69 15.4471 53.5544 0 34.4997 0ZM34.4997 64.1203C18.1405 64.1203 4.87831 50.8582 4.87831 34.4997C4.87831 18.1413 18.1405 4.87813 34.4997 4.87813C50.8598 4.87813 64.1214 18.1413 64.1214 34.4997C64.1212 50.8584 50.8598 64.1203 34.4997 64.1203Z" fill="#495ECA"/>
<path d="M61.1862 34.4989C61.1862 49.238 49.2385 61.185 34.4991 61.185C19.76 61.185 7.8125 49.2377 7.8125 34.4989C7.8125 19.7601 19.76 7.8125 34.4991 7.8125C49.2385 7.8125 61.1862 19.7598 61.1862 34.4989Z" fill="#495ECA"/>
<path d="M38.0886 48.3132C37.0881 49.2911 35.8799 49.781 34.4654 49.781C32.994 49.781 31.7838 49.3076 30.8324 48.3563C29.8834 47.4052 29.4082 46.1951 29.4082 44.723C29.4082 43.2945 29.9002 42.083 30.8862 41.0907C31.8712 40.0979 33.0651 39.6016 34.4641 39.6016C35.8641 39.6016 37.0675 40.1088 38.0759 41.1226C39.0825 42.1371 39.5867 43.3447 39.5867 44.7447C39.588 46.1459 39.0879 47.3347 38.0886 48.3132Z" fill="white"/>
<path d="M40.1453 35.3359C39.2898 35.7655 38.766 36.1367 38.5812 36.451C38.395 36.7639 38.3045 37.437 38.3045 38.466H30.3541V37.115C30.3541 35.3288 30.5528 34.0106 30.9541 33.1591C31.3533 32.3095 32.0825 31.6493 33.1409 31.177L34.5985 30.5355C35.6991 30.0486 36.2487 29.364 36.2487 28.4774C36.2487 27.962 36.0673 27.5284 35.7126 27.1687C35.3562 26.814 34.9185 26.6326 34.4049 26.6326C33.0048 26.6326 32.3037 27.6064 32.3037 29.5485H24.9102C24.9102 26.9473 25.5117 24.8268 26.7115 23.184C27.5978 21.9695 28.7469 21.0052 30.1615 20.2908C31.5763 19.5775 33.0405 19.2188 34.5554 19.2188C37.2426 19.2188 39.5015 20.1094 41.3382 21.8875C43.175 23.6655 44.0924 25.8701 44.0924 28.4991C44.0883 31.7416 42.7742 34.022 40.1453 35.3359Z" fill="white"/>
</svg>
