<svg width="80" height="66" viewBox="0 0 80 66" fill="none" xmlns="http://www.w3.org/2000/svg">
<path d="M29.0911 15.2308C29.0911 6.6 33.8186 0 40.0006 0C46.1826 0 50.9101 6.6 50.9101 15.2308C50.9101 23.8615 46.1826 30.4615 40.0006 30.4615C33.8186 30.4615 29.0911 23.8615 29.0911 15.2308ZM40.0006 40.6154C23.2727 40.6154 18.1816 57.3692 18.1816 57.3692V66H61.8196V57.3692C61.8196 57.3692 56.7285 40.6154 40.0006 40.6154Z" fill="#495ECA"/>
<path d="M63.6362 25.3846C68.6571 25.3846 72.7274 19.7021 72.7274 12.6923C72.7274 5.68254 68.6571 0 63.6362 0C58.6152 0 54.5449 5.68254 54.5449 12.6923C54.5449 19.7021 58.6152 25.3846 63.6362 25.3846Z" fill="#495ECA"/>
<path d="M63.6353 35.5391C59.2715 35.5391 55.9987 37.0621 53.4531 39.6006C61.8171 45.1852 65.0899 54.8314 65.0899 55.8468V56.3545H79.9995V49.7544C79.9995 49.2468 75.9994 35.5391 63.6353 35.5391Z" fill="#495ECA"/>
<path d="M63.6362 25.3846C68.6571 25.3846 72.7274 19.7021 72.7274 12.6923C72.7274 5.68254 68.6571 0 63.6362 0C58.6152 0 54.5449 5.68254 54.5449 12.6923C54.5449 19.7021 58.6152 25.3846 63.6362 25.3846Z" fill="#495ECA"/>
<path d="M63.6353 35.5391C59.2715 35.5391 55.9987 37.0621 53.4531 39.6006C61.8171 45.1852 65.0899 54.8314 65.0899 55.8468V56.3545H79.9995V49.7544C79.9995 49.2468 75.9994 35.5391 63.6353 35.5391Z" fill="#495ECA"/>
<path d="M16.3647 25.3846C21.3856 25.3846 25.4559 19.7021 25.4559 12.6923C25.4559 5.68254 21.3856 0 16.3647 0C11.3437 0 7.27344 5.68254 7.27344 12.6923C7.27344 19.7021 11.3437 25.3846 16.3647 25.3846Z" fill="#495ECA"/>
<path d="M16.3642 35.5391C20.728 35.5391 24.0009 37.0621 26.5464 39.6006C18.1825 45.1852 14.9096 54.8314 14.9096 55.8468V56.3545H0V49.7544C0 49.2468 4.00014 35.5391 16.3642 35.5391Z" fill="#495ECA"/>
</svg>
