<svg width="71" height="71" viewBox="0 0 71 71" fill="none" xmlns="http://www.w3.org/2000/svg">
<path d="M35.4973 41.9977C45.2849 41.9977 53.2192 32.5962 53.2192 20.9988C53.2192 9.4015 45.2849 0 35.4973 0C25.7098 0 17.7754 9.4015 17.7754 20.9988C17.7754 32.5962 25.7098 41.9977 35.4973 41.9977Z" fill="#495ECA"/>
<path d="M70.235 59.855C67.045 53.5553 61.0196 48.3056 53.2219 45.1558C51.0953 44.4558 48.6142 44.4558 46.842 45.5058C43.2976 47.6057 39.7533 48.6556 35.5 48.6556C31.2467 48.6556 27.7024 47.6057 24.158 45.5058C22.3858 44.8058 19.9047 44.4558 17.7781 45.5058C9.98043 48.6556 3.95497 53.9053 0.765027 60.205C-1.71604 64.7547 2.18278 70.0044 7.49936 70.0044H63.5006C68.8172 70.0044 72.716 64.7547 70.235 59.855Z" fill="#495ECA"/>
</svg>
